Coordinates
version=1
nRows=16
nColumns=40
inDegrees=yes

Units are S.I. units (second, meters, Newtons, ...)
Angles are in degrees.

endheader
time	pelvis_tilt	pelvis_list	pelvis_rotation	pelvis_tx	pelvis_ty	pelvis_tz	hip_flexion_r	hip_adduction_r	hip_rotation_r	knee_angle_r	knee_angle_r_beta	ankle_angle_r	subtalar_angle_r	mtp_angle_r	hip_flexion_l	hip_adduction_l	hip_rotation_l	knee_angle_l	knee_angle_l_beta	ankle_angle_l	subtalar_angle_l	mtp_angle_l	lumbar_extension	lumbar_bending	lumbar_rotation	arm_flex_r	arm_add_r	arm_rot_r	elbow_flex_r	pro_sup_r	wrist_flex_r	wrist_dev_r	arm_flex_l	arm_add_l	arm_rot_l	elbow_flex_l	pro_sup_l	wrist_flex_l	wrist_dev_l
     41.20614286	     -3.56935643	     -6.19495148	     -4.07121008	      0.89993580	      0.91468553	      0.42183006	     26.76173179	     -5.12568866	     -2.57249304	     62.49017101	     62.49017101	      5.08453174	    -13.74836685	      0.45769587	     18.20311544	     -4.98618280	     -1.79387626	     34.12819984	     34.12819984	     20.94376697	    -16.87857201	      5.22903030	    -10.95704026	      6.05222598	      1.91098426	      3.89355210	    -11.36702922	     -6.07268185	     24.84038599	     46.60906554	      0.00000000	      0.00000000	     25.75011527	    -13.54121528	     -0.91767905	     43.91366642	     46.26514652	      0.00000000	      0.00000000
     41.22478571	     -3.48817510	     -6.35990355	     -4.52278212	      0.90002785	      0.91502683	      0.42216147	     27.42625368	     -4.76442956	     -2.45006902	     60.54276693	     60.54276693	      5.47459573	    -13.98460370	      0.27900075	     17.50588770	     -5.18439616	     -2.04706429	     33.94025574	     33.94025574	     21.31985786	    -17.01776711	      5.53896425	    -11.14383202	      6.37685608	      2.42527733	      0.82252569	    -11.65355257	     -6.25943280	     22.91953094	     46.68684452	      0.00000000	      0.00000000	     26.34906958	    -13.22793502	     -1.24262563	     45.57911392	     46.32283070	      0.00000000	      0.00000000
     41.24342857	     -3.48409669	     -6.43062177	     -4.99360910	      0.90008861	      0.91561541	      0.42288575	     27.97653730	     -4.50840403	     -2.46092532	     57.97630083	     57.97630083	      5.87840049	    -13.95169721	     -0.08590642	     16.78900189	     -5.32412562	     -2.38946971	     33.55455417	     33.55455417	     21.61450840	    -17.04140991	      5.81662636	    -11.18713785	      6.58684333	      2.27178644	     -1.86510479	    -11.78339640	     -6.60891042	     21.73879043	     46.75182710	      0.00000000	      0.00000000	     26.62045964	    -13.55248129	     -1.65493944	     47.04842780	     46.38213103	      0.00000000	      0.00000000
     41.26207143	     -3.61515651	     -6.42304315	     -5.47882070	      0.90009575	      0.91639415	      0.42391128	     28.37894863	     -4.32414737	     -2.63301694	     54.64960105	     54.64960105	      5.66486722	    -14.00728453	     -2.14494677	     16.15356605	     -5.42157674	     -2.83207905	     33.02982002	     33.02982002	     21.84982029	    -16.95836039	      6.24033394	    -11.12610599	      6.67001234	      1.81603415	     -4.39297003	    -11.74366953	     -8.03277734	     21.35702745	     46.90319695	      0.00000000	      0.00000000	     25.99388227	    -14.13095724	     -2.61993905	     50.30824080	     46.51328163	      0.00000000	      0.00000000
     41.28071429	     -3.72618255	     -6.45481798	     -6.00638817	      0.90005555	      0.91748271	      0.42548374	     28.61587930	     -3.98846353	     -2.83143892	     51.00419734	     51.00419734	      6.21404363	    -13.37830114	     -2.41605978	     15.30525422	     -5.59033831	     -3.34356340	     32.16602128	     32.16602128	     21.93696609	    -16.83521660	      6.32985704	    -11.07102948	      6.82709732	      1.72059563	     -6.72318925	    -11.92058077	     -8.37328861	     20.67965484	     46.94729412	      0.00000000	      0.00000000	     26.56503241	    -14.65044512	     -3.00350867	     51.39042020	     46.56835535	      0.00000000	      0.00000000
     41.29935714	     -3.96346915	     -6.41216298	     -6.54334233	      0.89991801	      0.91871358	      0.42737505	     28.66306022	     -3.69311704	     -3.18294952	     46.65362118	     46.65362118	      5.86282210	    -12.69481509	     -4.57007892	     14.52485891	     -5.72658167	     -3.96762274	     31.12862734	     31.12862734	     21.70056035	    -16.65113068	      5.88357966	    -10.95342510	      6.87167338	      1.46667247	     -9.19875795	    -11.93373461	     -9.91163636	     21.50877834	     47.04590022	      0.00000000	      0.00000000	     26.21102642	    -15.21610025	     -3.97526917	     54.52452308	     46.70616053	      0.00000000	      0.00000000
     41.31800000	     -4.18879275	     -6.36540219	     -7.08254606	      0.89979833	      0.92013259	      0.42968546	     28.51862759	     -3.32541920	     -3.60911778	     42.10685199	     42.10685199	      6.23722153	    -11.09777221	     -4.48462996	     13.64967386	     -5.87022136	     -4.63468013	     29.96524311	     29.96524311	     21.63668462	    -16.32775203	      5.95909551	    -10.76999282	      6.87110275	      1.54153872	    -11.10791091	    -11.95904910	    -10.13548521	     21.06635905	     47.06741834	      0.00000000	      0.00000000	     26.84158480	    -15.61755780	     -4.30584951	     55.62654574	     46.75580023	      0.00000000	      0.00000000
     41.33664286	     -4.43081795	     -6.24698507	     -7.58625643	      0.89972396	      0.92150916	      0.43225518	     28.15511856	     -3.01494260	     -4.19457408	     37.25236713	     37.25236713	      6.19084202	     -8.94564450	     -5.25367744	     12.70155727	     -5.95389790	     -5.37373875	     28.58997767	     28.58997767	     21.16396045	    -15.98616200	      5.11285008	    -10.64320204	      6.77584479	      1.44737891	    -13.14817453	    -11.89373856	    -11.18264567	     22.25632840	     47.08190608	      0.00000000	      0.00000000	     26.65884978	    -16.10404857	     -5.27389012	     58.79965205	     46.89627605	      0.00000000	      0.00000000
     41.35528571	     -4.87485150	     -6.15163098	     -8.03903051	      0.89957043	      0.92256935	      0.43527214	     27.83662115	     -2.47911512	     -4.58439037	     32.35123153	     32.35123153	      6.21672470	     -6.74926534	     -4.62491303	     12.01195334	     -6.07877528	     -5.98005343	     27.28945064	     27.28945064	     21.04413274	    -15.53182744	      5.24191705	    -10.15561664	      6.70878307	      1.51053452	    -14.46432957	    -11.73909536	    -11.26227925	     21.99236072	     47.08482552	      0.00000000	      0.00000000	     27.29802681	    -16.46854087	     -5.52213354	     59.72880979	     46.93720529	      0.00000000	      0.00000000
     41.37392857	     -4.87560239	     -5.89927209	     -8.44082682	      0.89983528	      0.92375749	      0.43824252	     27.01036513	     -2.40301969	     -5.65152801	     27.79664909	     27.79664909	      6.54525275	     -2.59516467	     -3.78456502	     10.76958464	     -6.00183511	     -6.86887895	     25.87353336	     25.87353336	     20.84395359	    -14.76134070	      4.60699237	    -10.23786327	      6.42061567	      1.74789433	    -16.01359054	    -11.56321911	    -11.58448022	     22.80902626	     47.04987715	      0.00000000	      0.00000000	     27.69571379	    -16.66900481	     -6.17440775	     62.59933191	     47.04273686	      0.00000000	      0.00000000
     41.39257143	     -5.08401986	     -5.78681154	     -8.69841752	      0.90001077	      0.92449862	      0.44160819	     26.25373010	     -1.88345775	     -6.05728866	     23.35111017	     23.35111017	      6.32610662	      0.08346071	     -2.51249898	      9.86138929	     -6.06786603	     -7.39951308	     24.63555875	     24.63555875	     20.70902374	    -14.24074431	      4.43863335	    -10.03025785	      6.35704185	      1.82694316	    -16.92287773	    -11.39030268	    -11.67483881	     23.11330615	     47.02881893	      0.00000000	      0.00000000	     28.28139033	    -17.02740651	     -6.53961393	     64.05483508	     47.10156555	      0.00000000	      0.00000000
     41.41121429	     -5.20138564	     -5.52482485	     -8.90204516	      0.90042822	      0.92475130	      0.44496759	     25.78456473	     -1.76369195	     -6.94975932	     20.21514295	     20.21514295	      7.32395035	      4.00258067	      1.70125873	      8.83539834	     -5.97183096	     -8.07086123	     23.28672609	     23.28672609	     19.99085436	    -13.73463957	      2.50191983	     -9.99407419	      6.07982073	      1.44696821	    -18.07967238	    -11.27469075	    -11.64594670	     25.79109752	     46.85456951	      0.00000000	      0.00000000	     27.82880567	    -17.56653968	     -7.98150535	     68.23136809	     47.30327875	      0.00000000	      0.00000000
     41.42985714	     -5.27478024	     -5.31696380	     -8.99543794	      0.90097071	      0.92476298	      0.44853263	     25.16314308	     -1.49952881	     -7.40730377	     17.30825560	     17.30825560	      6.99685466	      6.54328486	      2.90196924	      7.89793617	     -5.91736864	     -8.52966083	     22.24745243	     22.24745243	     20.03165619	    -13.07289200	      2.27933637	     -9.86223001	      5.88749006	      1.70872601	    -18.50060689	    -10.98610691	    -11.46500161	     26.00378865	     46.81770006	      0.00000000	      0.00000000	     28.69738610	    -17.58682932	     -8.21005099	     69.59753679	     47.35524885	      0.00000000	      0.00000000
     41.44850000	     -5.40259013	     -5.08515559	     -9.00126304	      0.90161428	      0.92426775	      0.45208407	     24.90360586	     -1.40052711	     -8.02260671	     15.53276706	     15.53276706	      7.10172700	      9.00238282	      4.96688280	      7.11730948	     -5.86484211	     -8.95261023	     21.34905401	     21.34905401	     19.86577100	    -12.43350864	      1.27538725	     -9.70649059	      5.71676032	      1.49188297	    -18.87221271	    -10.86788918	    -10.94886892	     27.56500777	     46.67690944	      0.00000000	      0.00000000	     28.74730330	    -17.82887716	     -9.05228260	     72.37722258	     47.48661465	      0.00000000	      0.00000000
     41.46714286	     -5.53768308	     -4.84783636	     -8.92073858	      0.90234702	      0.92353128	      0.45580189	     24.70972894	     -1.25370759	     -7.99916994	     14.30226973	     14.30226973	      6.62240790	      9.93737101	      5.35988388	      6.47121664	     -5.78701144	     -9.08796510	     20.68436344	     20.68436344	     20.01299443	    -11.98800172	      1.17617398	     -9.45723885	      5.55507645	      1.62363560	    -18.70847120	    -10.58635428	    -10.80040412	     27.80570785	     46.65219064	      0.00000000	      0.00000000	     29.62747689	    -17.78976005	     -9.21918435	     73.33818046	     47.52386040	      0.00000000	      0.00000000
     41.48578571	     -5.46315405	     -4.78785047	     -8.79296645	      0.90346018	      0.92296430	      0.45959311	     24.30717911	     -1.07293516	     -8.26649545	     13.66185290	     13.66185290	      6.09219142	     10.99070149	      5.09180829	      5.52119052	     -5.89908534	     -9.35263025	     19.97467146	     19.97467146	     20.19437418	    -11.29998107	      0.84639275	     -9.53749800	      5.61886286	      1.82060383	    -18.48599894	    -10.47838641	    -10.58839595	     28.53027248	     46.59762682	      0.00000000	      0.00000000	     30.01785721	    -17.58300000	     -9.72212749	     75.31795669	     47.60333009	      0.00000000	      0.00000000
